<svg xmlns="http://www.w3.org/2000/svg" fill="none" viewBox="99 110 1095.81 637">
<g id="Group 18">
<g id="Polygon 1" filter="url(#filter0_d_136_35)">
<path d="M104 151.389C104 132.059 119.67 116.389 139 116.389L659.649 116.389C683.997 116.389 700.906 140.632 692.494 163.481L487.946 719.092C482.879 732.855 469.768 742 455.101 742L139 742C119.67 742 104 726.33 104 707L104 151.389Z" stroke="white" stroke-width="10" shape-rendering="crispEdges"/>
</g>
<g id="Polygon 2" filter="url(#filter1_d_136_35)">
<path d="M1189.81 705.611C1189.81 724.941 1174.14 740.611 1154.81 740.611L634.156 740.611C609.808 740.611 592.899 716.368 601.311 693.519L805.859 137.908C810.926 124.144 824.037 115 838.704 115L1154.81 115C1174.14 115 1189.81 130.67 1189.81 150L1189.81 705.611Z" stroke="white" stroke-width="10" shape-rendering="crispEdges"/>
</g>
<rect id="Rectangle 2" x="356" y="340" width="293" height="142" fill="#0E0030"/>
<rect id="Rectangle 3" x="626" y="371" width="293" height="142" fill="#0E0030"/>
<path id="Battle" d="M361.68 442V352.272H394.192C396.837 352.272 399.056 353.211 400.848 355.088C402.64 356.88 403.536 359.013 403.536 361.488V386.96C405.243 387.557 406.651 388.667 407.76 390.288C408.869 391.909 409.424 393.659 409.424 395.536V432.656C409.424 435.301 408.528 437.52 406.736 439.312C404.944 441.104 402.768 442 400.208 442H361.68ZM373.712 386.448H386.896C388.176 386.448 389.285 385.979 390.224 385.04C391.163 384.101 391.632 383.035 391.632 381.84V368.784C391.632 367.504 391.163 366.437 390.224 365.584C389.285 364.645 388.176 364.176 386.896 364.176H373.712V386.448ZM373.712 430.096H393.04C394.235 430.096 395.259 429.669 396.112 428.816C397.051 427.877 397.52 426.725 397.52 425.36V402.832C397.52 401.637 397.051 400.571 396.112 399.632C395.259 398.693 394.235 398.224 393.04 398.224H373.712V430.096ZM431.614 442C429.054 442 426.835 441.104 424.958 439.312C423.166 437.52 422.27 435.301 422.27 432.656V413.328C422.27 410.768 423.166 408.592 424.958 406.8C426.835 404.923 429.054 403.984 431.614 403.984H441.598C442.963 403.984 444.073 403.557 444.926 402.704C445.865 401.765 446.334 400.656 446.334 399.376V394.64C446.334 393.36 445.865 392.293 444.926 391.44C444.073 390.501 442.963 390.032 441.598 390.032H427.774L430.462 378H449.022C451.582 378 453.758 378.939 455.55 380.816C457.427 382.608 458.366 384.784 458.366 387.344V442H431.614ZM438.91 429.968H446.334V416.016H438.91C437.63 416.016 436.521 416.485 435.582 417.424C434.729 418.277 434.302 419.344 434.302 420.624V425.36C434.302 426.64 434.729 427.749 435.582 428.688C436.521 429.541 437.63 429.968 438.91 429.968ZM472.545 442V348.816L484.577 346.128V378H499.809L496.993 390.032H484.577V442H472.545ZM508.695 442V348.816L520.727 346.128V378H535.959L533.143 390.032H520.727V442H508.695ZM547.47 442V348.944L559.502 346.256V442H547.47ZM584.214 442C581.654 442 579.435 441.104 577.558 439.312C575.766 437.435 574.87 435.216 574.87 432.656V387.216C574.87 384.656 575.766 382.48 577.558 380.688C579.435 378.896 581.654 378 584.214 378H601.622C604.267 378 606.486 378.896 608.278 380.688C610.07 382.48 610.966 384.656 610.966 387.216V406.672C610.966 409.232 610.07 411.451 608.278 413.328C606.486 415.12 604.267 416.016 601.622 416.016H586.902V425.36C586.902 426.64 587.329 427.749 588.182 428.688C589.121 429.541 590.273 429.968 591.638 429.968H608.278L610.966 442H584.214ZM586.902 403.984H594.326C595.606 403.984 596.673 403.557 597.526 402.704C598.465 401.765 598.934 400.656 598.934 399.376V394.64C598.934 393.36 598.465 392.293 597.526 391.44C596.673 390.501 595.606 390.032 594.326 390.032H591.638C590.273 390.032 589.121 390.501 588.182 391.44C587.329 392.293 586.902 393.36 586.902 394.64V403.984Z" fill="white"/>
<path id="Board" d="M680.68 486V396.272H713.192C715.837 396.272 718.056 397.211 719.848 399.088C721.64 400.88 722.536 403.013 722.536 405.488V430.96C724.243 431.557 725.651 432.667 726.76 434.288C727.869 435.909 728.424 437.659 728.424 439.536V476.656C728.424 479.301 727.528 481.52 725.736 483.312C723.944 485.104 721.768 486 719.208 486H680.68ZM692.712 430.448H705.896C707.176 430.448 708.285 429.979 709.224 429.04C710.163 428.101 710.632 427.035 710.632 425.84V412.784C710.632 411.504 710.163 410.437 709.224 409.584C708.285 408.645 707.176 408.176 705.896 408.176H692.712V430.448ZM692.712 474.096H712.04C713.235 474.096 714.259 473.669 715.112 472.816C716.051 471.877 716.52 470.725 716.52 469.36V446.832C716.52 445.637 716.051 444.571 715.112 443.632C714.259 442.693 713.235 442.224 712.04 442.224H692.712V474.096ZM751.638 486C748.993 486 746.774 485.104 744.982 483.312C743.19 481.435 742.294 479.216 742.294 476.656V431.344C742.294 428.784 743.19 426.608 744.982 424.816C746.774 422.939 748.993 422 751.638 422H769.046C771.606 422 773.782 422.939 775.574 424.816C777.366 426.608 778.262 428.784 778.262 431.344V476.656C778.262 479.216 777.366 481.435 775.574 483.312C773.782 485.104 771.606 486 769.046 486H751.638ZM758.934 473.968H761.622C762.902 473.968 764.011 473.541 764.95 472.688C765.889 471.749 766.358 470.64 766.358 469.36V438.64C766.358 437.36 765.889 436.293 764.95 435.44C764.011 434.501 762.902 434.032 761.622 434.032H758.934C757.654 434.032 756.545 434.501 755.606 435.44C754.753 436.293 754.326 437.36 754.326 438.64V469.36C754.326 470.64 754.753 471.749 755.606 472.688C756.545 473.541 757.654 473.968 758.934 473.968ZM800.514 486C797.954 486 795.735 485.104 793.858 483.312C792.066 481.52 791.17 479.301 791.17 476.656V457.328C791.17 454.768 792.066 452.592 793.858 450.8C795.735 448.923 797.954 447.984 800.514 447.984H810.498C811.863 447.984 812.973 447.557 813.826 446.704C814.765 445.765 815.234 444.656 815.234 443.376V438.64C815.234 437.36 814.765 436.293 813.826 435.44C812.973 434.501 811.863 434.032 810.498 434.032H796.674L799.362 422H817.922C820.482 422 822.658 422.939 824.45 424.816C826.327 426.608 827.266 428.784 827.266 431.344V486H800.514ZM807.81 473.968H815.234V460.016H807.81C806.53 460.016 805.421 460.485 804.482 461.424C803.629 462.277 803.202 463.344 803.202 464.624V469.36C803.202 470.64 803.629 471.749 804.482 472.688C805.421 473.541 806.53 473.968 807.81 473.968ZM841.445 486V422H868.197C870.757 422 872.933 422.939 874.725 424.816C876.602 426.608 877.541 428.784 877.541 431.344V445.296L865.509 442.608V438.768C865.509 437.488 865.04 436.379 864.101 435.44C863.248 434.501 862.181 434.032 860.901 434.032H853.477V486H841.445ZM898.439 486C895.794 486 893.575 485.104 891.783 483.312C889.991 481.52 889.095 479.301 889.095 476.656V431.344C889.095 428.699 889.991 426.48 891.783 424.688C893.575 422.896 895.794 422 898.439 422H913.159V392.816L925.191 390V486H898.439ZM905.735 473.968H913.159V434.032H905.735C904.54 434.032 903.474 434.459 902.535 435.312C901.596 436.165 901.127 437.275 901.127 438.64V469.36C901.127 470.555 901.596 471.621 902.535 472.56C903.474 473.499 904.54 473.968 905.735 473.968Z" fill="white"/>
<line id="Line 1" x1="695.695" y1="288.721" x2="592.695" y2="569.721" stroke="white" stroke-width="10"/>
</g>
<defs>
<filter id="filter0_d_136_35" x="99" y="111.389" width="620.685" height="655.611" filterUnits="userSpaceOnUse" color-interpolation-filters="sRGB">
<feFlood flood-opacity="0" result="BackgroundImageFix"/>
<feColorMatrix in="SourceAlpha" type="matrix" values="0 0 0 0 0 0 0 0 0 0 0 0 0 0 0 0 0 0 127 0" result="hardAlpha"/>
<feOffset dx="10" dy="10"/>
<feGaussianBlur stdDeviation="5"/>
<feComposite in2="hardAlpha" operator="out"/>
<feColorMatrix type="matrix" values="0 0 0 0 1 0 0 0 0 1 0 0 0 0 1 0 0 0 0.25 0"/>
<feBlend mode="normal" in2="BackgroundImageFix" result="effect1_dropShadow_136_35"/>
<feBlend mode="normal" in="SourceGraphic" in2="effect1_dropShadow_136_35" result="shape"/>
</filter>
<filter id="filter1_d_136_35" x="594.121" y="110" width="620.685" height="655.611" filterUnits="userSpaceOnUse" color-interpolation-filters="sRGB">
<feFlood flood-opacity="0" result="BackgroundImageFix"/>
<feColorMatrix in="SourceAlpha" type="matrix" values="0 0 0 0 0 0 0 0 0 0 0 0 0 0 0 0 0 0 127 0" result="hardAlpha"/>
<feOffset dx="10" dy="10"/>
<feGaussianBlur stdDeviation="5"/>
<feComposite in2="hardAlpha" operator="out"/>
<feColorMatrix type="matrix" values="0 0 0 0 1 0 0 0 0 1 0 0 0 0 1 0 0 0 0.25 0"/>
<feBlend mode="normal" in2="BackgroundImageFix" result="effect1_dropShadow_136_35"/>
<feBlend mode="normal" in="SourceGraphic" in2="effect1_dropShadow_136_35" result="shape"/>
</filter>
</defs>
</svg>
