<svg width="148" height="55" viewBox="0 0 148 55" fill="none" xmlns="http://www.w3.org/2000/svg">
<path d="M1.92 31V8.568H10.048C10.7093 8.568 11.264 8.80267 11.712 9.272C12.16 9.72 12.384 10.2533 12.384 10.872V17.24C12.8107 17.3893 13.1627 17.6667 13.44 18.072C13.7173 18.4773 13.856 18.9147 13.856 19.384V28.664C13.856 29.3253 13.632 29.88 13.184 30.328C12.736 30.776 12.192 31 11.552 31H1.92ZM4.928 17.112H8.224C8.544 17.112 8.82133 16.9947 9.056 16.76C9.29067 16.5253 9.408 16.2587 9.408 15.96V12.696C9.408 12.376 9.29067 12.1093 9.056 11.896C8.82133 11.6613 8.544 11.544 8.224 11.544H4.928V17.112ZM4.928 28.024H9.76C10.0587 28.024 10.3147 27.9173 10.528 27.704C10.7627 27.4693 10.88 27.1813 10.88 26.84V21.208C10.88 20.9093 10.7627 20.6427 10.528 20.408C10.3147 20.1733 10.0587 20.056 9.76 20.056H4.928V28.024ZM19.4035 31C18.7635 31 18.2088 30.776 17.7395 30.328C17.2915 29.88 17.0675 29.3253 17.0675 28.664V23.832C17.0675 23.192 17.2915 22.648 17.7395 22.2C18.2088 21.7307 18.7635 21.496 19.4035 21.496H21.8995C22.2408 21.496 22.5182 21.3893 22.7315 21.176C22.9662 20.9413 23.0835 20.664 23.0835 20.344V19.16C23.0835 18.84 22.9662 18.5733 22.7315 18.36C22.5182 18.1253 22.2408 18.008 21.8995 18.008H18.4435L19.1155 15H23.7555C24.3955 15 24.9395 15.2347 25.3875 15.704C25.8568 16.152 26.0915 16.696 26.0915 17.336V31H19.4035ZM21.2275 27.992H23.0835V24.504H21.2275C20.9075 24.504 20.6302 24.6213 20.3955 24.856C20.1822 25.0693 20.0755 25.336 20.0755 25.656V26.84C20.0755 27.16 20.1822 27.4373 20.3955 27.672C20.6302 27.8853 20.9075 27.992 21.2275 27.992ZM29.6363 31V7.704L32.6443 7.032V15H36.4523L35.7483 18.008H32.6443V31H29.6363ZM38.6737 31V7.704L41.6817 7.032V15H45.4897L44.7857 18.008H41.6817V31H38.6737ZM48.3675 31V7.736L51.3755 7.064V31H48.3675ZM57.5535 31C56.9135 31 56.3588 30.776 55.8895 30.328C55.4415 29.8587 55.2175 29.304 55.2175 28.664V17.304C55.2175 16.664 55.4415 16.12 55.8895 15.672C56.3588 15.224 56.9135 15 57.5535 15H61.9055C62.5668 15 63.1215 15.224 63.5695 15.672C64.0175 16.12 64.2415 16.664 64.2415 17.304V22.168C64.2415 22.808 64.0175 23.3627 63.5695 23.832C63.1215 24.28 62.5668 24.504 61.9055 24.504H58.2255V26.84C58.2255 27.16 58.3322 27.4373 58.5455 27.672C58.7802 27.8853 59.0682 27.992 59.4095 27.992H63.5695L64.2415 31H57.5535ZM58.2255 21.496H60.0815C60.4015 21.496 60.6682 21.3893 60.8815 21.176C61.1162 20.9413 61.2335 20.664 61.2335 20.344V19.16C61.2335 18.84 61.1162 18.5733 60.8815 18.36C60.6682 18.1253 60.4015 18.008 60.0815 18.008H59.4095C59.0682 18.008 58.7802 18.1253 58.5455 18.36C58.3322 18.5733 58.2255 18.84 58.2255 19.16V21.496Z" fill="white"/>
<path d="M84.92 46V23.568H93.048C93.7093 23.568 94.264 23.8027 94.712 24.272C95.16 24.72 95.384 25.2533 95.384 25.872V32.24C95.8107 32.3893 96.1627 32.6667 96.44 33.072C96.7173 33.4773 96.856 33.9147 96.856 34.384V43.664C96.856 44.3253 96.632 44.88 96.184 45.328C95.736 45.776 95.192 46 94.552 46H84.92ZM87.928 32.112H91.224C91.544 32.112 91.8213 31.9947 92.056 31.76C92.2907 31.5253 92.408 31.2587 92.408 30.96V27.696C92.408 27.376 92.2907 27.1093 92.056 26.896C91.8213 26.6613 91.544 26.544 91.224 26.544H87.928V32.112ZM87.928 43.024H92.76C93.0587 43.024 93.3147 42.9173 93.528 42.704C93.7627 42.4693 93.88 42.1813 93.88 41.84V36.208C93.88 35.9093 93.7627 35.6427 93.528 35.408C93.3147 35.1733 93.0587 35.056 92.76 35.056H87.928V43.024ZM102.66 46C101.998 46 101.444 45.776 100.996 45.328C100.548 44.8587 100.324 44.304 100.324 43.664V32.336C100.324 31.696 100.548 31.152 100.996 30.704C101.444 30.2347 101.998 30 102.66 30H107.012C107.652 30 108.196 30.2347 108.644 30.704C109.092 31.152 109.316 31.696 109.316 32.336V43.664C109.316 44.304 109.092 44.8587 108.644 45.328C108.196 45.776 107.652 46 107.012 46H102.66ZM104.484 42.992H105.156C105.476 42.992 105.753 42.8853 105.988 42.672C106.222 42.4373 106.34 42.16 106.34 41.84V34.16C106.34 33.84 106.222 33.5733 105.988 33.36C105.753 33.1253 105.476 33.008 105.156 33.008H104.484C104.164 33.008 103.886 33.1253 103.652 33.36C103.438 33.5733 103.332 33.84 103.332 34.16V41.84C103.332 42.16 103.438 42.4373 103.652 42.672C103.886 42.8853 104.164 42.992 104.484 42.992ZM114.879 46C114.239 46 113.684 45.776 113.215 45.328C112.767 44.88 112.543 44.3253 112.543 43.664V38.832C112.543 38.192 112.767 37.648 113.215 37.2C113.684 36.7307 114.239 36.496 114.879 36.496H117.375C117.716 36.496 117.993 36.3893 118.207 36.176C118.441 35.9413 118.559 35.664 118.559 35.344V34.16C118.559 33.84 118.441 33.5733 118.207 33.36C117.993 33.1253 117.716 33.008 117.375 33.008H113.919L114.591 30H119.231C119.871 30 120.415 30.2347 120.863 30.704C121.332 31.152 121.567 31.696 121.567 32.336V46H114.879ZM116.703 42.992H118.559V39.504H116.703C116.383 39.504 116.105 39.6213 115.871 39.856C115.657 40.0693 115.551 40.336 115.551 40.656V41.84C115.551 42.16 115.657 42.4373 115.871 42.672C116.105 42.8853 116.383 42.992 116.703 42.992ZM125.111 46V30H131.799C132.439 30 132.983 30.2347 133.431 30.704C133.901 31.152 134.135 31.696 134.135 32.336V35.824L131.127 35.152V34.192C131.127 33.872 131.01 33.5947 130.775 33.36C130.562 33.1253 130.295 33.008 129.975 33.008H128.119V46H125.111ZM139.36 46C138.698 46 138.144 45.776 137.696 45.328C137.248 44.88 137.024 44.3253 137.024 43.664V32.336C137.024 31.6747 137.248 31.12 137.696 30.672C138.144 30.224 138.698 30 139.36 30H143.04V22.704L146.048 22V46H139.36ZM141.184 42.992H143.04V33.008H141.184C140.885 33.008 140.618 33.1147 140.384 33.328C140.149 33.5413 140.032 33.8187 140.032 34.16V41.84C140.032 42.1387 140.149 42.4053 140.384 42.64C140.618 42.8747 140.885 42.992 141.184 42.992Z" fill="white"/>
<line x1="84.423" y1="0.474342" x2="66.423" y2="54.4743" stroke="white" stroke-width="3"/>
</svg>
